<?xml version="1.0" standalone="no"?><!DOCTYPE svg PUBLIC "-//W3C//DTD SVG 1.1//EN" "http://www.w3.org/Graphics/SVG/1.1/DTD/svg11.dtd"><svg t="1714800329144" class="icon" viewBox="0 0 1024 1024" version="1.1" xmlns="http://www.w3.org/2000/svg" p-id="1520" xmlns:xlink="http://www.w3.org/1999/xlink" width="200" height="200"><path d="M665.297 836.004C828.193 774.105 943.99 616.61 943.99 432.013 943.99 194.918 752.995 2.423 516.5 0.023c-239.395-2.4-434.29 188.695-436.49 427.99-1.7 186.396 114.797 345.892 278.993 408.091 24.8 9.4 41 33.3 41 59.699v56.199c0 4.4-3.6 8-8 8h-71.999c-35.299 0-63.998 28.599-63.998 63.998h511.988c0-17.7-7.2-33.7-18.7-45.299s-27.599-18.7-45.298-18.7h-71.999c-4.4 0-8-3.6-8-8v-56.198c0-26.5 16.5-50.4 41.3-59.799zM480 128.02h63.998c17.6 0 32 14.4 32 31.999s-14.4 32-32 32h-63.998c-17.6 0-32-14.4-32-32s14.4-32 32-32z m79.998 823.982c0 4.4-3.6 8-8 8h-79.998c-4.4 0-8-3.6-8-8v-90.698c15.8 1.8 31.8 2.7 47.999 2.7s32.2-0.9 47.999-2.7v90.698zM512 704.007c-114.897 0-207.995-93.098-207.995-207.995S397.103 288.016 512 288.016s207.995 93.098 207.995 207.996S626.897 704.007 512 704.007z" p-id="1521" fill="#2c2c2c"></path><path d="M655.997 496.012c0 38.499-15 74.598-42.2 101.797-27.199 27.2-63.298 42.2-101.797 42.2s-74.598-15-101.798-42.2c-27.2-27.2-42.199-63.298-42.199-101.797s15-74.599 42.2-101.798c27.199-27.2 63.298-42.2 101.797-42.2s74.598 15 101.798 42.2c27.2 27.2 42.199 63.298 42.199 101.798z" p-id="1522" fill="#2c2c2c"></path></svg>